W     W DDD           b    l     Y   Y          W     W
W  W  W D  D ooo u  u bbb  l eee   Y   ooo u  u W  W  W
 W W W  D  D o o u  u b  b l e e   Y   o o u  u  W W W 
  W W   DDD  ooo  uuu bbb  l ee    Y   ooo  uuu   W W  

Release Name: Pirates.of.the.Caribbean.At.World's.End.1080p.6ch-aac.mp4
Release Type: Movie

Title: Pirates of the Caribbean, At World's End
IMDB Rating: 7.0
MPAA Rating: PG-13
Release Year: 2006
Length: 2hr 48 min
Source: BluRay
Resolution: 1080p (1920x800)
Video Bitrate: 5000 kbps
Video Codec: x264 (8-bit)
Notable encode settings: bframes=8:ref=10:subme=10:me=umh:me_range=64:rc_lookahead=60
Audio Bitrate: 511 kbps VBR
Audio Channels: 5.1
Audio Codec: AAC
Audio Language: English
Subtitles: English
Format: MP4
Size: 6.49 GB

Plot:
After Elizabeth, Will, and Captain Barbossa rescue Captain Jack Sparrow from the the land of the dead, they must face their foes, Davy Jones and Lord Cutler Beckett. Beckett, now with control of Jones' heart, forms a dark alliance with him in order to rule the seas and wipe out the last of the Pirates. Now, Jack, Barbossa, Will, Elizabeth, Tia Dalma, and crew must call the Pirate Lords from the four corners of the globe, including the infamous Sao Feng, to gathering. The Pirate Lords want to release the goddess Calypso, Davy Jones's damned lover, from the trap they sent her to out of fear, in which the Pirate Lords must combine the 9 pieces that bound her by ritual to undo it and release her in hopes that she will help them fight. With this, all pirates will stand together and will make their final stand for freedom against Beckett, Jones, Norrington, the Flying Dutchman, and the entire East India Trading Company.

Release Notes:
Cover correctly tagged as always.

MediaInfo output:
===================== General =====================
Complete name                            : Pirates of the Caribbean, At World's End (2007).mp4
Format                                   : MPEG-4
Format profile                           : Base Media
Codec ID                                 : isom
File size                                : 6.49 GiB
Duration                                 : 2h 48mn
Overall bit rate mode                    : Variable
Overall bit rate                         : 5 513 Kbps
Encoded date                             : UTC 2013-02-23 13:08:46
Tagged date                              : UTC 2013-02-23 13:08:46
Writing application                      : Yamb 2.1.0.0 [http://yamb.unite-video.com]
Cover                                    : Yes

===================== Video =====================
ID                                       : 1
Format                                   : AVC
Format/Info                              : Advanced Video Codec
Format profile                           : High@L5.0
Format settings, CABAC                   : Yes
Format settings, ReFrames                : 10 frames
Codec ID                                 : avc1
Codec ID/Info                            : Advanced Video Coding
Duration                                 : 2h 48mn
Bit rate                                 : 5 000 Kbps
Maximum bit rate                         : 23.3 Mbps
Width                                    : 1 920 pixels
Height                                   : 800 pixels
Display aspect ratio                     : 2.40:1
Frame rate mode                          : Constant
Frame rate                               : 23.976 fps
Color space                              : YUV
Chroma subsampling                       : 4:2:0
Bit depth                                : 8 bits
Scan type                                : Progressive
Bits/(Pixel*Frame)                       : 0.136
Stream size                              : 5.88 GiB (91%)
Writing library                          : x264 core 129 r2245 bc13772
Encoding settings                        : cabac=1 / ref=10 / deblock=1:0:0 / analyse=0x3:0x133 / me=umh / subme=10 / psy=1 / psy_rd=1.00:0.00 / mixed_ref=1 / me_range=64 / chroma_me=1 / trellis=2 / 8x8dct=1 / cqm=0 / deadzone=21,11 / fast_pskip=1 / chroma_qp_offset=-2 / threads=6 / lookahead_threads=1 / sliced_threads=0 / nr=0 / decimate=1 / interlaced=0 / bluray_compat=0 / constrained_intra=0 / bframes=8 / b_pyramid=2 / b_adapt=2 / b_bias=0 / direct=3 / weightb=1 / open_gop=0 / weightp=2 / keyint=250 / keyint_min=23 / scenecut=40 / intra_refresh=0 / rc_lookahead=60 / rc=2pass / mbtree=1 / bitrate=5000 / ratetol=1.0 / qcomp=0.60 / qpmin=0 / qpmax=69 / qpstep=4 / cplxblur=20.0 / qblur=0.5 / ip_ratio=1.40 / aq=1:1.00
Language                                 : English
Tagged date                              : UTC 2013-02-23 13:17:37

===================== Audio =====================
ID                                       : 2
Format                                   : AAC
Format/Info                              : Advanced Audio Codec
Format profile                           : LC
Codec ID                                 : 40
Duration                                 : 2h 48mn
Bit rate mode                            : Variable
Bit rate                                 : 511 Kbps
Maximum bit rate                         : 580 Kbps
Channel(s)                               : 6 channels
Channel positions                        : Front: L C R, Side: L R, LFE
Sampling rate                            : 48.0 KHz
Compression mode                         : Lossy
Delay relative to video                  : 83ms
Stream size                              : 616 MiB (9%)
Encoded date                             : UTC 2013-02-23 13:17:05
Tagged date                              : UTC 2013-02-23 13:17:37

===================== Text =====================
ID                                       : 3
Format                                   : Timed text
Codec ID                                 : tx3g
Duration                                 : 2h 47mn
Bit rate mode                            : Variable
Bit rate                                 : 47 bps
Delay relative to video                  : 83ms
Stream size                              : 57.9 KiB (0%)
Encoded date                             : UTC 2013-02-23 13:17:37
Tagged date                              : UTC 2013-02-23 13:17:37